<?xml version="1.0" encoding="utf-8"?>
<!-- Generator: Adobe Illustrator 16.0.0, SVG Export Plug-In . SVG Version: 6.00 Build 0)  -->
<!DOCTYPE svg PUBLIC "-//W3C//DTD SVG 1.0//EN" "http://www.w3.org/TR/2001/REC-SVG-20010904/DTD/svg10.dtd">
<svg version="1.0" id="Capa_1" xmlns="http://www.w3.org/2000/svg" xmlns:xlink="http://www.w3.org/1999/xlink" x="0px" y="0px"
	 width="219.292px" height="329.611px" viewBox="0 0 219.292 329.611" enable-background="new 0 0 219.292 329.611"
	 xml:space="preserve">
<path d="M171.965,72.25c-5.451,1.109-18.881-5.38-21.621-12.645c-2.74-7.266-6.139-12.204-8.227-14.069
	c-2.084-1.865-8.777-6.146-12.73-11.524c-3.949-5.377-10.459-8.604-18.326-4.828c-7.865,3.776-30.795,18.531-33.17,40.951
	c-1.76,16.596,0.764,30.147,12.852,50.935l-15.02-1.313c0,0-4.605,0.533-1.746,5.805c3.42,6.303,19.562,27.729,20.824,29.417
	c1.258,1.688,4.346,0.983,5.244-1.128c0.562-1.316,2.619-7.599,4.09-12.142c0.998,1.424,2.02,2.868,3.086,4.357
	c36.646,51.02-7.875,83.119-14.963,90.922c-7.09,7.803-16.496,14.631-14.256,27.984C80.83,281.85,96.398,281.5,96.398,281.5
	s8.184-0.316,13.514-5.762c1.422-1.998-0.586-3.818-2.578-2.641c-0.279,0.277-5.609,3.772-10.588,3.317
	c-4.975-0.456-16.361-9.034-7.008-20.346c9.357-11.312,79.256-65.81,76.244-111.896c-3.014-46.085-33.205-53.641-40.99-58.022
	c-7.785-4.381-22.205-11.857-13.996-21.958c-0.557,5.583,5.34,12.582,12.305,13.227c6.961,0.646,19.217-3.397,23.928-2.945
	s13.766,2.972,15.561,6.322c1.416,2.649,1.486,5.056,3.023,6.068c1.922,1.268,5.75-0.344,8.16-5.268
	C176.385,76.672,177.811,71.062,171.965,72.25z"/>
</svg>
