<?xml version="1.0" encoding="utf-8"?>
<!-- Generator: Adobe Illustrator 21.0.0, SVG Export Plug-In . SVG Version: 6.00 Build 0)  -->
<svg version="1.1" id="Layer_1" xmlns="http://www.w3.org/2000/svg" xmlns:xlink="http://www.w3.org/1999/xlink" x="0px" y="0px"
	 viewBox="0 0 1366 768" style="enable-background:new 0 0 1366 768;" xml:space="preserve">
<style type="text/css">
	.st0{fill:none;stroke:#000000;stroke-width:3;stroke-miterlimit:10;}
	.st1{fill:none;stroke:#303030;stroke-width:3;stroke-miterlimit:10;}
	.st2{fill:none;stroke:#21009B;stroke-width:3;stroke-miterlimit:10;}
	.st3{fill:none;stroke:#000000;stroke-width:5;stroke-miterlimit:10;}
	.st4{fill:none;stroke:#000000;stroke-width:2;stroke-miterlimit:10;}
</style>
<g>
	<ellipse class="st0" cx="683" cy="384" rx="162.8" ry="162.3"/>
	<ellipse class="st1" cx="683" cy="384" rx="143.6" ry="143.2"/>
	<polygon class="st2" points="713.2,384 682.3,414.8 651.4,384 682.3,353.2 	"/>
	<ellipse class="st3" cx="682.6" cy="383.6" rx="40.6" ry="40.4"/>
	<path class="st4" d="M572.7,294.1c-5.5,19.6-23.3,100.7,61.9,100.2c0,0,7-0.4,7.4-8.5c0.4-8.1-1.2-15,10.5-29.3
		c0,0-9.2-31,1.5-54.6s27.6-37.6,27.6-37.6s10.8-10.7-2.2-18.7c-12.7-7.8-64.9,0.3-103.1,42.6C574.3,290.4,573.5,291.3,572.7,294.1z
		"/>
	<path class="st4" d="M772.9,274.4c-19.7-5.5-101-23.2-100.5,61.7c0,0,0.4,7,8.5,7.4c8.1,0.4,15-1.2,29.4,10.4c0,0,31-9.1,54.8,1.5
		c23.7,10.7,37.7,27.5,37.7,27.5s10.7,10.7,18.8-2.2c7.8-12.6-0.3-64.6-42.7-102.8C776.7,276,775.7,275.2,772.9,274.4z"/>
	<path class="st4" d="M790.8,475.2c6.2-19.4,26.5-99.9-58.7-102.1c0,0-7,0.1-7.7,8.2c-0.7,8.1,0.7,15-11.4,28.9
		c0,0,8.2,31.2-3.3,54.5C698.3,488,681,501.5,681,501.5s-11.1,10.3,1.6,18.8c12.4,8.2,64.8,1.7,104.4-39.3
		C789,478.8,789.9,477.9,790.8,475.2z"/>
	<path class="st4" d="M588.3,490.4c19.4,6.2,100.1,26.9,102.7-58c0,0-0.1-7-8.2-7.7c-8.1-0.7-15.1,0.6-29-11.5c0,0-31.4,8-54.7-3.5
		s-36.7-28.8-36.7-28.8s-10.3-11.1-18.8,1.5c-8.3,12.3-2,64.6,38.9,104.3C584.6,488.6,585.5,489.5,588.3,490.4z"/>
</g>
</svg>
